<svg width="70" height="70" viewBox="0 0 70 70" fill="none" xmlns="http://www.w3.org/2000/svg">
<rect x="0.648148" y="0.648148" width="68.7037" height="68.7037" rx="34.3519" stroke="black" stroke-opacity="0.3" stroke-width="1.2963"/>
<g clip-path="url(#clip0_1434_109)">
<path d="M28.9907 25.3926C28.9907 26.2752 28.2752 26.9907 27.3926 26.9907C26.51 26.9907 25.7944 26.2752 25.7944 25.3926C25.7944 24.51 26.51 23.7944 27.3926 23.7944C28.2752 23.7944 28.9907 24.51 28.9907 25.3926ZM27.3926 31.7852C28.2752 31.7852 28.9907 31.0697 28.9907 30.187C28.9907 29.3044 28.2752 28.5889 27.3926 28.5889C26.51 28.5889 25.7944 29.3044 25.7944 30.187C25.7944 31.0697 26.51 31.7852 27.3926 31.7852ZM28.9907 34.9815C28.9907 35.8641 28.2752 36.5796 27.3926 36.5796C26.51 36.5796 25.7944 35.8641 25.7944 34.9815C25.7944 34.0988 26.51 33.3833 27.3926 33.3833C28.2752 33.3833 28.9907 34.0988 28.9907 34.9815ZM28.9907 39.7759C28.9907 40.6586 28.2752 41.3741 27.3926 41.3741C26.51 41.3741 25.7944 40.6586 25.7944 39.7759C25.7944 38.8933 26.51 38.1778 27.3926 38.1778C28.2752 38.1778 28.9907 38.8933 28.9907 39.7759ZM27.3926 46.1685C28.2752 46.1685 28.9907 45.453 28.9907 44.5704C28.9907 43.6877 28.2752 42.9722 27.3926 42.9722C26.51 42.9722 25.7944 43.6877 25.7944 44.5704C25.7944 45.453 26.51 46.1685 27.3926 46.1685ZM38.5796 41.3741C39.4623 41.3741 40.1778 40.6586 40.1778 39.7759C40.1778 38.8933 39.4623 38.1778 38.5796 38.1778C37.697 38.1778 36.9815 38.8933 36.9815 39.7759C36.9815 40.6586 37.697 41.3741 38.5796 41.3741ZM43.3741 41.3741C44.2567 41.3741 44.9722 40.6586 44.9722 39.7759C44.9722 38.8933 44.2567 38.1778 43.3741 38.1778C42.4914 38.1778 41.7759 38.8933 41.7759 39.7759C41.7759 40.6586 42.4914 41.3741 43.3741 41.3741ZM43.3741 36.5796C44.2567 36.5796 44.9722 35.8641 44.9722 34.9815C44.9722 34.0988 44.2567 33.3833 43.3741 33.3833C42.4914 33.3833 41.7759 34.0988 41.7759 34.9815C41.7759 35.8641 42.4914 36.5796 43.3741 36.5796ZM40.1778 34.9815C40.1778 35.8641 39.4623 36.5796 38.5796 36.5796C37.697 36.5796 36.9815 35.8641 36.9815 34.9815C36.9815 34.0988 37.697 33.3833 38.5796 33.3833C39.4623 33.3833 40.1778 34.0988 40.1778 34.9815ZM43.3741 31.7852C44.2567 31.7852 44.9722 31.0697 44.9722 30.187C44.9722 29.3044 44.2567 28.5889 43.3741 28.5889C42.4914 28.5889 41.7759 29.3044 41.7759 30.187C41.7759 31.0697 42.4914 31.7852 43.3741 31.7852ZM40.1778 30.187C40.1778 31.0697 39.4623 31.7852 38.5796 31.7852C37.697 31.7852 36.9815 31.0697 36.9815 30.187C36.9815 29.3044 37.697 28.5889 38.5796 28.5889C39.4623 28.5889 40.1778 29.3044 40.1778 30.187ZM38.5796 23.7944V22.5958C38.5796 20.6099 36.9697 19 34.9838 19H24.5958C22.6099 19 21 20.6099 21 22.5958V48.9653C21 49.6272 21.5366 50.1639 22.1986 50.1639H48.568C49.23 50.1639 49.7667 49.6272 49.7667 48.9653V27.3903C49.7667 25.4044 48.1567 23.7944 46.1708 23.7944H38.5796ZM23.3972 22.5958C23.3972 21.9339 23.9339 21.3972 24.5958 21.3972H34.9838C35.6457 21.3972 36.1824 21.9339 36.1824 22.5958V23.7944H35.7829C33.797 23.7944 32.187 25.4044 32.187 27.3903V47.7667H23.3972V22.5958ZM39.3787 47.7667V45.3694H42.575V47.7667H39.3787ZM44.9722 44.1708C44.9722 43.5089 44.4356 42.9722 43.7736 42.9722H38.1801C37.5181 42.9722 36.9815 43.5089 36.9815 44.1708V47.7667H34.5843V27.3903C34.5843 26.7283 35.1209 26.1917 35.7829 26.1917H46.1708C46.8328 26.1917 47.3694 26.7283 47.3694 27.3903V47.7667H44.9722V44.1708Z" fill="#090808"/>
</g>
<defs>
<clipPath id="clip0_1434_109">
<rect width="28.7667" height="31.963" fill="white" transform="translate(21 19)"/>
</clipPath>
</defs>
</svg>
