<svg width="21" height="20" viewBox="0 0 21 20" fill="none" xmlns="http://www.w3.org/2000/svg">
<path d="M13.847 12.2174L13.6627 12.1149C12.6729 11.5639 11.7632 10.88 10.9591 10.0821L10.958 10.081C10.1601 9.27687 9.47614 8.3672 8.92522 7.37738L8.83545 7.21609L8.98904 7.1137L9.40904 6.8337L9.4201 6.82633L9.43203 6.82049C9.83106 6.62511 10.1437 6.28906 10.3099 5.87701C10.4759 5.46522 10.4839 5.00661 10.3323 4.58931C10.1696 4.15385 10.0368 3.70777 9.9349 3.25419C9.88369 3.02886 9.84285 2.79418 9.8122 2.56013C9.69816 1.90428 9.35417 1.31046 8.84187 0.885248C8.32853 0.459179 7.67994 0.230393 7.01289 0.240091L7.00998 0.240133V0.240112H4.00998H4.0081V0.240103C3.60586 0.236327 3.20753 0.319263 2.84023 0.483265C2.47293 0.647268 2.14527 0.888486 1.87957 1.1905C1.61387 1.49251 1.41636 1.84823 1.30049 2.23344C1.18462 2.61864 1.15311 3.02429 1.2081 3.42277L1.20839 3.42488L1.20838 3.42488C1.73551 7.57017 3.62866 11.4217 6.58879 14.3711C9.54603 17.3176 13.3998 19.1959 17.5423 19.7101H17.91H17.9103C18.5985 19.7111 19.263 19.4586 19.7769 19.0008C20.0721 18.7367 20.3078 18.4131 20.4687 18.0512C20.6296 17.6892 20.7118 17.2972 20.71 16.901L20.71 16.9001L13.847 12.2174ZM13.847 12.2174L13.9397 12.028M13.847 12.2174L13.9397 12.028M13.9397 12.028L14.1596 11.5781L13.9397 12.028ZM19.14 17.0004L19.14 16.9988L19.12 13.8816C19.1255 13.6036 19.0343 13.3322 18.8618 13.114C18.6888 12.895 18.4448 12.7431 18.1719 12.6846L18.172 12.6841L18.1589 12.6822C17.8907 12.643 17.6257 12.5939 17.3641 12.535C16.8367 12.4146 16.3168 12.2632 15.8071 12.0817L15.6323 12.0194L15.5571 12.1891L14.9379 13.5874C14.8933 13.6828 14.8302 13.7685 14.7524 13.8395C14.6741 13.911 14.5824 13.9661 14.4826 14.0018L14.4825 14.0016L14.474 14.0051C14.2806 14.0846 14.0638 14.0851 13.8701 14.0068C10.8326 12.5865 8.39069 10.1439 6.97132 7.10576C6.92699 7.01023 6.90196 6.90689 6.89766 6.80167C6.89336 6.6964 6.90989 6.59131 6.94632 6.49245C6.98274 6.39358 7.03834 6.30289 7.10991 6.22557C7.18148 6.14825 7.26762 6.08583 7.36338 6.04189L7.3642 6.04151L8.7642 5.39151L8.93289 5.3132L8.86701 5.13927C8.67934 4.64377 8.52839 4.13512 8.41538 3.61746L8.41538 3.61745L8.4151 3.61621C8.35623 3.35454 8.30714 3.08952 8.26787 2.82115L8.2683 2.82109L8.26553 2.80816C8.20698 2.53525 8.05513 2.29128 7.8361 2.11825C7.61769 1.9457 7.3461 1.85446 7.06786 1.86011L4.06998 1.86011L4.06973 1.86011C3.89934 1.86033 3.73096 1.89682 3.57578 1.96717C3.4206 2.03752 3.28218 2.14011 3.16973 2.26811L3.16968 2.26807L3.16652 2.27185C3.05492 2.40538 2.97126 2.55996 2.9205 2.72643C2.86975 2.8929 2.85294 3.06786 2.87107 3.24094L2.87103 3.24095L2.87148 3.24461C3.33933 7.03603 5.05608 10.5638 7.75094 13.2715C10.4458 15.9792 13.9654 17.7126 17.7545 18.1985L17.7551 18.1986C17.9296 18.2204 18.1068 18.2052 18.275 18.1539C18.4432 18.1026 18.5987 18.0164 18.7313 17.9009L18.732 17.9004C18.86 17.7879 18.9626 17.6495 19.0329 17.4943C19.1033 17.3391 19.1398 17.1707 19.14 17.0004Z" fill="white" stroke="black" stroke-width="0.4"/>
</svg>
