<svg width="70" height="70" viewBox="0 0 70 70" fill="none" xmlns="http://www.w3.org/2000/svg">
<rect x="0.648148" y="0.648148" width="68.7037" height="68.7037" rx="34.3519" stroke="black" stroke-opacity="0.3" stroke-width="1.2963"/>
<g clip-path="url(#clip0_1434_116)">
<path d="M27.7899 21.3972C26.4659 21.3972 25.3926 22.4705 25.3926 23.7944C25.3926 25.1183 26.4659 26.1917 27.7899 26.1917C29.114 26.1917 30.1873 25.1183 30.1873 23.7944C30.1873 22.4705 29.114 21.3972 27.7899 21.3972ZM22.9954 23.7944C22.9954 21.1465 25.142 19 27.7899 19C30.4378 19 32.5844 21.1465 32.5844 23.7944C32.5844 26.4424 30.4378 28.5889 27.7899 28.5889C25.142 28.5889 22.9954 26.4424 22.9954 23.7944ZM21.8253 30.187C20.2649 30.187 19 31.452 19 33.0122V33.5866C19 33.9195 18.9999 35.8381 20.1201 37.7026C20.994 39.1571 22.4785 40.4633 24.8736 41.0487C25.2026 40.1711 25.8023 39.4261 26.5711 38.9148C24.0079 38.6406 22.7966 37.5027 22.175 36.4681C21.4014 35.1804 21.3972 33.8099 21.3972 33.5831V33.0122C21.3972 32.7759 21.5889 32.5843 21.8253 32.5843H28.6383C28.7462 31.7197 29.0266 30.9088 29.4441 30.187H21.8253ZM40.5191 30.187C40.9367 30.9088 41.217 31.7197 41.3248 32.5843H48.1377C48.3741 32.5843 48.5657 32.7759 48.5657 33.0122V33.5831C48.5657 33.8099 48.5616 35.1804 47.7881 36.4681C47.1664 37.5027 45.955 38.6406 43.3919 38.9148C44.1606 39.4261 44.7604 40.1711 45.0893 41.0487C47.4844 40.4633 48.9689 39.1571 49.8428 37.7026C50.9631 35.8381 50.963 33.9195 50.963 33.5866V33.0122C50.963 31.452 49.698 30.187 48.1377 30.187H40.5191ZM39.7759 23.7944C39.7759 22.4705 40.8492 21.3972 42.1733 21.3972C43.4974 21.3972 44.5705 22.4705 44.5705 23.7944C44.5705 25.1183 43.4974 26.1917 42.1733 26.1917C40.8492 26.1917 39.7759 25.1183 39.7759 23.7944ZM42.1733 19C39.5253 19 37.3787 21.1465 37.3787 23.7944C37.3787 26.4424 39.5253 28.5889 42.1733 28.5889C44.8211 28.5889 46.9677 26.4424 46.9677 23.7944C46.9677 21.1465 44.8211 19 42.1733 19ZM34.9816 30.9861C33.6576 30.9861 32.5843 32.0594 32.5843 33.3833C32.5843 34.7072 33.6576 35.7806 34.9816 35.7806C36.3057 35.7806 37.3789 34.7072 37.3789 33.3833C37.3789 32.0594 36.3057 30.9861 34.9816 30.9861ZM30.187 33.3833C30.187 30.7354 32.3337 28.5889 34.9816 28.5889C37.6294 28.5889 39.7761 30.7354 39.7761 33.3833C39.7761 36.0313 37.6294 38.1778 34.9816 38.1778C32.3337 38.1778 30.187 36.0313 30.187 33.3833ZM26.1917 42.6011C26.1917 41.0409 27.4566 39.7759 29.0169 39.7759H40.9461C42.5064 39.7759 43.7713 41.0409 43.7713 42.6011V43.1755C43.7713 43.5084 43.7714 45.427 42.6511 47.2915C41.4664 49.2636 39.159 50.963 34.9815 50.963C30.8039 50.963 28.4966 49.2636 27.3117 47.2915C26.1916 45.427 26.1916 43.5084 26.1917 43.1755V42.6011ZM29.0169 42.1731C28.7805 42.1731 28.5889 42.3648 28.5889 42.6011V43.172C28.5889 43.3988 28.593 44.7693 29.3666 46.057C30.0796 47.2436 31.5679 48.5657 34.9815 48.5657C38.3951 48.5657 39.8833 47.2436 40.5964 46.057C41.3699 44.7693 41.3741 43.3988 41.3741 43.172V42.6011C41.3741 42.3648 41.1824 42.1731 40.9461 42.1731H29.0169Z" fill="#090808"/>
</g>
<defs>
<clipPath id="clip0_1434_116">
<rect width="31.963" height="31.963" fill="white" transform="translate(19 19)"/>
</clipPath>
</defs>
</svg>
