<svg width="70" height="70" viewBox="0 0 70 70" fill="none" xmlns="http://www.w3.org/2000/svg">
<rect x="0.648148" y="0.648148" width="68.7037" height="68.7037" rx="34.3519" stroke="black" stroke-opacity="0.3" stroke-width="1.2963"/>
<mask id="path-3-inside-1_1434_123" fill="white">
<path d="M15.6331 21.1875C15.4828 21.2666 15.277 21.4486 15.1741 21.5911L15 21.8523L15.0158 31.7292L15.0396 41.6061L15.277 41.8594C15.7044 42.3105 15.7914 42.3263 18.4585 42.3263C20.7536 42.3263 20.904 42.3184 21.2206 42.1601C21.4105 42.073 21.64 41.8831 21.7271 41.7248L21.9012 41.4557L24.1884 43.7825C27.5598 47.2094 29.9895 49.3937 30.8284 49.7577C31.4695 50.0426 32.5062 50.0822 33.1947 49.8448C33.8041 49.6469 34.2711 49.3304 34.651 48.8872L34.928 48.5627L35.4661 49.0059C36.123 49.544 36.6849 49.7736 37.4922 49.829C38.5606 49.8923 39.6053 49.4491 40.2226 48.6656C40.3888 48.4677 40.5233 48.2936 40.5312 48.2778C40.5391 48.2619 40.7686 48.3332 41.0456 48.4281C41.7658 48.6656 42.858 48.6181 43.5149 48.3253C44.4646 47.8821 45.2956 46.7899 45.4301 45.8085C45.4618 45.5474 45.5251 45.4128 45.5963 45.4128C45.8733 45.4128 46.6251 44.9855 47.0446 44.5818C47.7173 43.9408 48.0734 43.1256 48.0814 42.1997C48.0814 41.804 48.0893 41.7881 48.3821 41.6694C48.6749 41.5507 48.6749 41.5507 48.8174 41.7723C48.8965 41.8989 49.1181 42.073 49.3081 42.168C49.6325 42.3263 49.7433 42.3342 52.1809 42.3105C54.6106 42.2867 54.7293 42.2788 54.943 42.1205C55.0617 42.0335 55.2437 41.8356 55.3466 41.6932L55.5207 41.432V31.6421V21.8523L55.3466 21.5911C55.1171 21.2587 54.6976 21.0371 54.294 21.0371C53.9062 21.0371 45.6042 23.2135 45.343 23.3797C45.1135 23.538 44.8682 23.9258 44.8128 24.2503C44.7811 24.4085 44.8682 24.9546 45.0265 25.6748C45.2243 26.5375 45.2718 26.8699 45.2085 26.9094C44.9632 27.0677 44.243 27.2893 43.9818 27.2893C43.5228 27.2814 43.2537 27.1548 41.1089 25.9201C38.244 24.2819 37.4605 23.9653 36.1626 23.9653C34.9754 23.9653 33.7013 24.4323 32.8307 25.192L32.4271 25.5482H28.9765H25.5259L25.5655 25.3662C25.7158 24.7014 25.7396 24.4956 25.6921 24.2265C25.6209 23.8625 25.4309 23.5459 25.1697 23.3797C24.9007 23.2056 16.6224 21.0371 16.2267 21.0371C16.0526 21.0371 15.7835 21.1004 15.6331 21.1875ZM20.2234 24.7172C21.6321 25.0892 22.7955 25.4057 22.8192 25.4216C22.843 25.4532 19.7802 38.9944 19.6219 39.5721C19.5823 39.6988 19.4636 39.7146 18.5535 39.7146H17.5325V31.8795C17.5325 27.4555 17.5642 24.0445 17.6038 24.0445C17.6433 24.0445 18.8226 24.3452 20.2234 24.7172ZM52.9882 31.8795V39.7146H51.9672C51.0571 39.7146 50.9384 39.6988 50.8988 39.5721C50.7405 39.0102 47.6777 25.4532 47.7015 25.4216C47.749 25.382 52.6795 24.0682 52.8536 24.0524C52.9803 24.0445 52.9882 24.4639 52.9882 31.8795ZM37.595 26.9965C38.0066 27.1943 39.0196 27.7562 39.8348 28.2311C41.8608 29.4103 42.3277 29.6398 43.0084 29.7902C43.7365 29.9564 44.7495 29.901 45.4222 29.6715C45.6834 29.5765 45.897 29.5132 45.905 29.5211C45.9208 29.5528 48.0101 38.6937 48.026 38.8361C48.0339 38.8994 47.7965 39.0577 47.4245 39.2239L46.8072 39.5009L42.9925 35.71C39.4074 32.1328 39.1462 31.8954 38.5843 31.6184C37.8087 31.2385 37.1914 31.0881 36.4079 31.0881C35.2999 31.0881 34.5956 31.3414 33.2739 32.1961C32.807 32.4969 32.0868 32.9163 31.6673 33.1142C30.7493 33.5653 29.9816 33.6602 29.3643 33.4228L29.0002 33.2883L29.7442 32.4889C30.1478 32.0457 31.1291 30.9298 31.9126 30.0197C34.5164 26.9886 35.0783 26.5454 36.2655 26.6008C36.7482 26.6245 36.954 26.6878 37.595 26.9965ZM29.9578 28.2074C29.9578 28.3182 27.8447 30.6687 26.9425 31.563C26.3885 32.1091 25.8979 32.6314 25.8504 32.7264C25.7237 32.9717 25.7396 33.5178 25.8899 33.8264C26.0878 34.238 27.2433 35.2906 27.8685 35.615C28.6995 36.0503 29.2851 36.177 30.314 36.1374C31.6911 36.082 32.8624 35.6309 34.5876 34.4912C35.6561 33.779 35.846 33.6998 36.4237 33.6998C37.2706 33.7077 37.2706 33.6998 41.4176 37.8389C43.5228 39.9362 45.2956 41.7486 45.3589 41.8673C45.5251 42.1838 45.4934 42.3896 45.2402 42.6508C45.074 42.8091 44.9315 42.8803 44.7495 42.8803C44.5121 42.8803 44.2113 42.6033 41.4334 39.8412C39.7556 38.1634 38.2836 36.7547 38.1649 36.7151C37.6188 36.5094 36.8907 36.6914 36.5899 37.1108C36.3763 37.3957 36.2813 37.8706 36.3683 38.2426C36.4317 38.5116 36.8432 38.9628 39.5182 41.6457C41.2118 43.3472 42.6601 44.8272 42.7314 44.938C42.9213 45.2229 42.8896 45.4761 42.6285 45.7373C42.4623 45.8956 42.3198 45.9668 42.1378 45.9668C41.9004 45.9668 41.5759 45.674 38.5922 42.6903C36.2813 40.3873 35.2287 39.3901 35.0625 39.3505C34.4294 39.1764 33.8279 39.3585 33.5113 39.8017C33.2739 40.142 33.2185 40.783 33.4005 41.1471C33.4717 41.2974 34.6114 42.5004 35.9331 43.83C37.2468 45.1596 38.3469 46.3071 38.3706 46.3784C38.4419 46.5841 38.2836 46.9719 38.0699 47.1065C37.785 47.2885 37.5396 47.2648 37.1914 47.0036C37.0252 46.877 35.6402 45.5236 34.1128 43.9883C32.5933 42.4608 31.2479 41.155 31.1291 41.0917C30.8205 40.9255 30.2032 40.9492 29.8945 41.1392C29.3959 41.4478 29.1506 42.0968 29.3247 42.6666C29.4038 42.9357 29.7362 43.3156 31.1054 44.7006C32.0314 45.6344 32.8149 46.4812 32.8386 46.5762C32.9019 46.782 32.712 47.1935 32.4983 47.3122C32.0788 47.5338 31.9126 47.4389 30.6939 46.2992C26.9346 42.8011 22.6293 38.48 22.6451 38.2188C22.6451 38.1476 23.1595 35.8604 23.7848 33.1221L24.9244 28.1599H27.4411C28.8261 28.1599 29.9578 28.1836 29.9578 28.2074Z"/>
</mask>
<path d="M15.6331 21.1875C15.4828 21.2666 15.277 21.4486 15.1741 21.5911L15 21.8523L15.0158 31.7292L15.0396 41.6061L15.277 41.8594C15.7044 42.3105 15.7914 42.3263 18.4585 42.3263C20.7536 42.3263 20.904 42.3184 21.2206 42.1601C21.4105 42.073 21.64 41.8831 21.7271 41.7248L21.9012 41.4557L24.1884 43.7825C27.5598 47.2094 29.9895 49.3937 30.8284 49.7577C31.4695 50.0426 32.5062 50.0822 33.1947 49.8448C33.8041 49.6469 34.2711 49.3304 34.651 48.8872L34.928 48.5627L35.4661 49.0059C36.123 49.544 36.6849 49.7736 37.4922 49.829C38.5606 49.8923 39.6053 49.4491 40.2226 48.6656C40.3888 48.4677 40.5233 48.2936 40.5312 48.2778C40.5391 48.2619 40.7686 48.3332 41.0456 48.4281C41.7658 48.6656 42.858 48.6181 43.5149 48.3253C44.4646 47.8821 45.2956 46.7899 45.4301 45.8085C45.4618 45.5474 45.5251 45.4128 45.5963 45.4128C45.8733 45.4128 46.6251 44.9855 47.0446 44.5818C47.7173 43.9408 48.0734 43.1256 48.0814 42.1997C48.0814 41.804 48.0893 41.7881 48.3821 41.6694C48.6749 41.5507 48.6749 41.5507 48.8174 41.7723C48.8965 41.8989 49.1181 42.073 49.3081 42.168C49.6325 42.3263 49.7433 42.3342 52.1809 42.3105C54.6106 42.2867 54.7293 42.2788 54.943 42.1205C55.0617 42.0335 55.2437 41.8356 55.3466 41.6932L55.5207 41.432V31.6421V21.8523L55.3466 21.5911C55.1171 21.2587 54.6976 21.0371 54.294 21.0371C53.9062 21.0371 45.6042 23.2135 45.343 23.3797C45.1135 23.538 44.8682 23.9258 44.8128 24.2503C44.7811 24.4085 44.8682 24.9546 45.0265 25.6748C45.2243 26.5375 45.2718 26.8699 45.2085 26.9094C44.9632 27.0677 44.243 27.2893 43.9818 27.2893C43.5228 27.2814 43.2537 27.1548 41.1089 25.9201C38.244 24.2819 37.4605 23.9653 36.1626 23.9653C34.9754 23.9653 33.7013 24.4323 32.8307 25.192L32.4271 25.5482H28.9765H25.5259L25.5655 25.3662C25.7158 24.7014 25.7396 24.4956 25.6921 24.2265C25.6209 23.8625 25.4309 23.5459 25.1697 23.3797C24.9007 23.2056 16.6224 21.0371 16.2267 21.0371C16.0526 21.0371 15.7835 21.1004 15.6331 21.1875ZM20.2234 24.7172C21.6321 25.0892 22.7955 25.4057 22.8192 25.4216C22.843 25.4532 19.7802 38.9944 19.6219 39.5721C19.5823 39.6988 19.4636 39.7146 18.5535 39.7146H17.5325V31.8795C17.5325 27.4555 17.5642 24.0445 17.6038 24.0445C17.6433 24.0445 18.8226 24.3452 20.2234 24.7172ZM52.9882 31.8795V39.7146H51.9672C51.0571 39.7146 50.9384 39.6988 50.8988 39.5721C50.7405 39.0102 47.6777 25.4532 47.7015 25.4216C47.749 25.382 52.6795 24.0682 52.8536 24.0524C52.9803 24.0445 52.9882 24.4639 52.9882 31.8795ZM37.595 26.9965C38.0066 27.1943 39.0196 27.7562 39.8348 28.2311C41.8608 29.4103 42.3277 29.6398 43.0084 29.7902C43.7365 29.9564 44.7495 29.901 45.4222 29.6715C45.6834 29.5765 45.897 29.5132 45.905 29.5211C45.9208 29.5528 48.0101 38.6937 48.026 38.8361C48.0339 38.8994 47.7965 39.0577 47.4245 39.2239L46.8072 39.5009L42.9925 35.71C39.4074 32.1328 39.1462 31.8954 38.5843 31.6184C37.8087 31.2385 37.1914 31.0881 36.4079 31.0881C35.2999 31.0881 34.5956 31.3414 33.2739 32.1961C32.807 32.4969 32.0868 32.9163 31.6673 33.1142C30.7493 33.5653 29.9816 33.6602 29.3643 33.4228L29.0002 33.2883L29.7442 32.4889C30.1478 32.0457 31.1291 30.9298 31.9126 30.0197C34.5164 26.9886 35.0783 26.5454 36.2655 26.6008C36.7482 26.6245 36.954 26.6878 37.595 26.9965ZM29.9578 28.2074C29.9578 28.3182 27.8447 30.6687 26.9425 31.563C26.3885 32.1091 25.8979 32.6314 25.8504 32.7264C25.7237 32.9717 25.7396 33.5178 25.8899 33.8264C26.0878 34.238 27.2433 35.2906 27.8685 35.615C28.6995 36.0503 29.2851 36.177 30.314 36.1374C31.6911 36.082 32.8624 35.6309 34.5876 34.4912C35.6561 33.779 35.846 33.6998 36.4237 33.6998C37.2706 33.7077 37.2706 33.6998 41.4176 37.8389C43.5228 39.9362 45.2956 41.7486 45.3589 41.8673C45.5251 42.1838 45.4934 42.3896 45.2402 42.6508C45.074 42.8091 44.9315 42.8803 44.7495 42.8803C44.5121 42.8803 44.2113 42.6033 41.4334 39.8412C39.7556 38.1634 38.2836 36.7547 38.1649 36.7151C37.6188 36.5094 36.8907 36.6914 36.5899 37.1108C36.3763 37.3957 36.2813 37.8706 36.3683 38.2426C36.4317 38.5116 36.8432 38.9628 39.5182 41.6457C41.2118 43.3472 42.6601 44.8272 42.7314 44.938C42.9213 45.2229 42.8896 45.4761 42.6285 45.7373C42.4623 45.8956 42.3198 45.9668 42.1378 45.9668C41.9004 45.9668 41.5759 45.674 38.5922 42.6903C36.2813 40.3873 35.2287 39.3901 35.0625 39.3505C34.4294 39.1764 33.8279 39.3585 33.5113 39.8017C33.2739 40.142 33.2185 40.783 33.4005 41.1471C33.4717 41.2974 34.6114 42.5004 35.9331 43.83C37.2468 45.1596 38.3469 46.3071 38.3706 46.3784C38.4419 46.5841 38.2836 46.9719 38.0699 47.1065C37.785 47.2885 37.5396 47.2648 37.1914 47.0036C37.0252 46.877 35.6402 45.5236 34.1128 43.9883C32.5933 42.4608 31.2479 41.155 31.1291 41.0917C30.8205 40.9255 30.2032 40.9492 29.8945 41.1392C29.3959 41.4478 29.1506 42.0968 29.3247 42.6666C29.4038 42.9357 29.7362 43.3156 31.1054 44.7006C32.0314 45.6344 32.8149 46.4812 32.8386 46.5762C32.9019 46.782 32.712 47.1935 32.4983 47.3122C32.0788 47.5338 31.9126 47.4389 30.6939 46.2992C26.9346 42.8011 22.6293 38.48 22.6451 38.2188C22.6451 38.1476 23.1595 35.8604 23.7848 33.1221L24.9244 28.1599H27.4411C28.8261 28.1599 29.9578 28.1836 29.9578 28.2074Z" fill="#090808" stroke="white" stroke-width="0.8" mask="url(#path-3-inside-1_1434_123)"/>
</svg>
