<svg width="19" height="21" viewBox="0 0 19 21" fill="none" xmlns="http://www.w3.org/2000/svg">
<path d="M4.55686 2.685C4.56059 3.17898 4.37683 3.65463 4.04532 4.00911C3.71381 4.3636 3.26118 4.56842 2.78531 4.57929C2.31044 4.56138 1.86034 4.3548 1.52807 4.00225C1.1958 3.64969 1.00675 3.17812 1 2.685C1.02052 2.20443 1.21644 1.74997 1.548 1.41383C1.87955 1.07769 2.32191 0.885049 2.78531 0.875C3.24734 0.885241 3.68813 1.07836 4.01746 1.41484C4.34679 1.75132 4.53976 2.20571 4.55686 2.685ZM1.19133 7.945C1.19133 6.85643 1.85893 7.02643 2.78531 7.02643C3.71169 7.02643 4.36553 6.85643 4.36553 7.945V18.5507C4.36553 19.6536 3.69793 19.4279 2.78531 19.4279C1.8727 19.4279 1.19133 19.6536 1.19133 18.5507V7.945ZM7.11851 7.94643C7.11851 7.33786 7.336 7.11071 7.67599 7.04071C8.01599 6.97071 9.18876 7.04071 9.59758 7.04071C10.0064 7.04071 10.1702 7.73357 10.1564 8.25643C10.5065 7.77 10.9707 7.38466 11.5049 7.1371C12.0391 6.88954 12.6254 6.788 13.2081 6.84214C13.7804 6.80588 14.3536 6.89495 14.8906 7.10356C15.4275 7.31218 15.9162 7.63567 16.3248 8.05304C16.7335 8.47041 17.0529 8.97232 17.2625 9.52617C17.4721 10.08 17.5671 10.6734 17.5413 11.2679V18.5079C17.5413 19.6107 16.8875 19.385 15.9597 19.385C15.0333 19.385 14.3795 19.6107 14.3795 18.5079V12.8521C14.4035 12.5611 14.3669 12.2681 14.2721 11.9931C14.1773 11.718 14.0266 11.4674 13.8302 11.2581C13.6338 11.0489 13.3964 10.886 13.1339 10.7804C12.8715 10.6749 12.5902 10.6292 12.3093 10.6464C12.0294 10.6388 11.7511 10.693 11.493 10.8054C11.2348 10.9178 11.0026 11.0859 10.8118 11.2985C10.621 11.5112 10.4759 11.7634 10.3862 12.0387C10.2964 12.3139 10.2641 12.6058 10.2913 12.895V18.5507C10.2913 19.6536 9.62373 19.4279 8.69735 19.4279C7.77097 19.4279 7.11714 19.6536 7.11714 18.5507V7.945L7.11851 7.94643Z" stroke="white" stroke-width="1.6" stroke-linecap="round" stroke-linejoin="round"/>
</svg>
