<svg width="22" height="23" viewBox="0 0 22 23" fill="none" xmlns="http://www.w3.org/2000/svg">
<path d="M16.6551 7.65316C17.542 7.65316 18.261 6.90697 18.261 5.98649C18.261 5.06602 17.542 4.31982 16.6551 4.31982C15.7682 4.31982 15.0492 5.06602 15.0492 5.98649C15.0492 6.90697 15.7682 7.65316 16.6551 7.65316Z" fill="white"/>
<path d="M15.5845 1.54175C18.5394 1.54175 20.9375 4.03064 20.9375 7.0973V15.9862C20.9375 19.0529 18.5394 21.5417 15.5845 21.5417H7.01966C4.06478 21.5417 1.66663 19.0529 1.66663 15.9862V7.0973C1.66663 4.03064 4.06478 1.54175 7.01966 1.54175H11.3021H15.5845Z" stroke="white" stroke-width="1.63601" stroke-linecap="round" stroke-linejoin="round"/>
<path d="M11.3021 7.09741C13.6681 7.09741 15.5845 9.0863 15.5845 11.5419C15.5845 13.9974 13.6681 15.9863 11.3021 15.9863C8.93604 15.9863 7.01965 13.9974 7.01965 11.5419C7.01965 9.0863 8.93604 7.09741 11.3021 7.09741Z" stroke="white" stroke-width="1.63601" stroke-linecap="round" stroke-linejoin="round"/>
</svg>
