<svg width="18" height="23" viewBox="0 0 18 23" fill="none" xmlns="http://www.w3.org/2000/svg">
<path d="M5.59041 16.897L5.59066 16.8973C6.59849 17.9953 7.69818 19.0053 8.87775 19.9163L8.99959 20.0104L9.12174 19.9167C9.29857 19.781 9.50529 19.6163 9.7417 19.4228L9.74192 19.4226C10.689 18.6449 11.5803 17.8018 12.4093 16.8993L12.4097 16.8989C14.3744 14.7483 16.2 11.9405 16.2 9.00002C16.2 7.09046 15.4414 5.25912 14.0912 3.90885C12.7409 2.55859 10.9096 1.80002 9 1.80002C7.09044 1.80002 5.25909 2.55859 3.90883 3.90885C2.55857 5.25912 1.8 7.09046 1.8 9.00002C1.8 11.9395 3.62557 14.7483 5.59041 16.897ZM8.99981 21.9711L8.55051 21.6621L8.54558 21.658L8.53869 21.6532L8.51942 21.6397L8.51869 21.6392L8.44688 21.5885L8.44442 21.5867L8.17916 21.3931C8.17878 21.3929 8.17841 21.3926 8.17804 21.3923C6.82025 20.3718 5.55885 19.2289 4.40966 17.9781C2.37439 15.7497 0.2 12.5585 0.2 8.99902C0.2 6.66512 1.12714 4.4268 2.77746 2.77648C4.42778 1.12616 6.66609 0.199023 9 0.199023C11.3339 0.199023 13.5722 1.12616 15.2225 2.77648C16.8729 4.4268 17.8 6.66512 17.8 8.99902C17.8 12.5585 15.6257 15.7505 13.5906 17.9759C12.4414 19.227 11.1799 20.3702 9.82194 21.3911C9.71022 21.4745 9.59746 21.5566 9.48369 21.6372L9.46506 21.6496L9.45618 21.6555L9.4516 21.6593L8.99981 21.9711ZM9 6.80002C8.41652 6.80002 7.85695 7.03181 7.44437 7.44439C7.03179 7.85697 6.8 8.41655 6.8 9.00002C6.8 9.5835 7.03179 10.1431 7.44437 10.5557C7.85695 10.9682 8.41652 11.2 9 11.2C9.58348 11.2 10.1431 10.9682 10.5556 10.5557C10.9682 10.1431 11.2 9.5835 11.2 9.00002C11.2 8.41655 10.9682 7.85697 10.5556 7.44439C10.1431 7.03181 9.58348 6.80002 9 6.80002ZM5.2 9.00002C5.2 7.9922 5.60036 7.02566 6.31299 6.31302C7.02563 5.60038 7.99218 5.20002 9 5.20002C10.0078 5.20002 10.9744 5.60038 11.687 6.31302C12.3996 7.02566 12.8 7.9922 12.8 9.00002C12.8 10.0078 12.3996 10.9744 11.687 11.687C10.9744 12.3997 10.0078 12.8 9 12.8C7.99218 12.8 7.02563 12.3997 6.31299 11.687C5.60036 10.9744 5.2 10.0078 5.2 9.00002Z" fill="white" stroke="black" stroke-width="0.4"/>
</svg>
